HIERARCHY
ROOT Hips
{
  OFFSET 0.0296113 81.4257 0.0264461
  CHANNELS 6 Xposition Yposition Zposition Zrotation Xrotation Yrotation
  JOINT Spine
  {
    OFFSET -0.000355721 21.3001 -0.016921
    CHANNELS 3 Zrotation Xrotation Yrotation
    JOINT LeftArm
    {
      OFFSET 13.5181 21.3012 0
      CHANNELS 3 Zrotation Xrotation Yrotation
      JOINT LeftForeArm
      {
        OFFSET 24.5783 0 0
        CHANNELS 3 Zrotation Xrotation Yrotation
        JOINT LeftHand
        {
          OFFSET 24.5783 0 0
          CHANNELS 3 Zrotation Xrotation Yrotation
          End Site
          {
            OFFSET 7.32568 1.52588e-05 0.0169305
          }
        }
      }
    }
    JOINT Head
    {
      OFFSET 0 27.4458 -0.00489235
      CHANNELS 3 Zrotation Xrotation Yrotation
      End Site
      {
        OFFSET 0 0 0
      }
    }
    JOINT RightArm
    {
      OFFSET -13.5174 21.3012 0
      CHANNELS 3 Zrotation Xrotation Yrotation
      JOINT RightForeArm
      {
        OFFSET -24.5783 0 0
        CHANNELS 3 Zrotation Xrotation Yrotation
        JOINT RightHand
        {
          OFFSET -24.5783 0 0
          CHANNELS 3 Zrotation Xrotation Yrotation
          End Site
          {
            OFFSET -7.32568 1.52588e-05 0.0169305
          }
        }
      }
    }
  }
  JOINT RightUpLeg
  {
    OFFSET -8.44614 -9.41038 0.835684
    CHANNELS 3 Zrotation Xrotation Yrotation
    JOINT RightLeg
    {
      OFFSET 0 -40.9639 0
      CHANNELS 3 Zrotation Xrotation Yrotation
      JOINT RightFoot
      {
        OFFSET 0 -40.9639 0
        CHANNELS 3 Zrotation Xrotation Yrotation
        End Site
        {
          OFFSET 0.50614 -9.67405 14.6709
        }
      }
    }
  }
  JOINT LeftUpLeg
  {
    OFFSET 8.44614 -9.41038 0.835684
    CHANNELS 3 Zrotation Xrotation Yrotation
    JOINT LeftLeg
    {
      OFFSET 0 -40.9639 0
      CHANNELS 3 Zrotation Xrotation Yrotation
      JOINT LeftFoot
      {
        OFFSET 0 -40.9639 0
        CHANNELS 3 Zrotation Xrotation Yrotation
        End Site
        {
          OFFSET -0.50614 -9.67405 14.6709
        }
      }
    }
  }
}
MOTION
Frames:	17
Frame Time:	0.0333333
0.0295199 81.4258 0.0262126 7.35907 2.98893 -50.437 -2.15209 10.8647 3.23473 -55.8925 -7.69382 -10.6734 -14.7923 -15.3126 -30.6581 6.85877 2.17328 -2.79131 -8.3739 -4.9028 44.6715 49.256 1.89507 0.586403 14.1019 -6.4688 48.2297 6.08765 4.25694 35.3867 -27.2701 -30.0362 -15.8048 -12.7744 56.0717 12.5748 36.9158 -58.6153 17.8076 43.1735 -31.4216 62.7399 4.81498 48.0363 -23.6828 -8.24467 -32.8894 0.806808 
-0.0305586 81.3337 -0.105543 7.01111 3.12654 -49.6304 -1.5312 11.2579 1.94956 -54.2242 -4.75621 -4.84419 -19.4459 -15.3209 -37.7616 8.72289 3.08595 -1.79136 -10.035 -4.39358 45.089 51.4179 3.03637 1.242 11.1962 -4.53032 51.921 4.93836 4.48272 29.4363 -26.991 -29.6171 -15.813 -12.5164 56.4567 12.0997 36.9121 -58.9919 17.6973 43.5359 -31.6752 63.1 5.04453 48.102 -24.2813 -8.2327 -32.6285 0.347006 
-0.0546019 81.2696 -0.250378 6.46674 3.41499 -47.9907 -0.750439 11.6582 0.381719 -53.1711 -0.238919 0.638205 -23.5228 -14.6044 -43.1678 10.4608 5.38526 -1.63445 -11.8496 -3.17242 44.9516 54.4604 4.06455 2.36761 6.19471 -2.52848 53.7381 4.83861 3.98526 25.1263 -26.6243 -28.6778 -15.8493 -11.6098 56.7756 10.7746 36.7607 -59.4881 17.2398 44.2471 -31.8224 64.2812 4.41891 48.1847 -25.1651 -7.5777 -31.8912 -0.678727 
0.0444407 81.2341 -0.37726 5.79992 4.16649 -45.7188 0.156832 11.9573 -1.10935 -52.7724 4.43262 4.97691 -26.0496 -13.0579 -46.5665 11.6454 8.59508 -1.86031 -13.0479 -1.96314 44.0362 57.6263 4.30931 3.73035 0.369341 -0.527835 54.4765 6.1234 3.14571 22.1751 -25.8531 -27.6412 -15.9247 -10.4465 56.8438 8.87152 36.4546 -59.9432 16.3004 45.4225 -32.4488 65.8113 3.20423 48.374 -25.5364 -6.24842 -30.9438 -1.5308 
0.331383 81.2512 -0.308777 5.13993 5.12766 -43.2347 1.08654 12.1683 -2.26163 -53.0427 8.18531 8.35958 -26.5306 -10.9292 -48.0087 11.8176 12.234 -2.37146 -13.6504 -1.28948 42.3837 60.032 3.97814 4.91582 -3.79794 0.774597 55.2019 8.20996 3.68493 20.0914 -25.0513 -26.5197 -16.033 -9.14011 56.429 6.71996 36.097 -60.1599 15.0189 46.0307 -34.3948 65.2639 2.28527 48.71 -24.7982 -4.84009 -30.6565 -1.07552 
0.843538 81.3808 0.18621 4.61659 5.98561 -41.0974 1.92059 12.2864 -2.8909 -53.8739 10.2689 11.4257 -24.9519 -8.47559 -47.7103 10.7072 15.8054 -3.50697 -14.1281 -1.15417 40.2857 61.2881 3.81678 5.33521 -5.30254 1.08271 56.9509 10.3573 6.16814 18.191 -24.6666 -25.1273 -16.1083 -7.58982 55.1838 4.57512 35.7288 -59.904 13.6125 45.7624 -36.9724 62.8816 1.53866 49.4139 -23.2207 -3.23056 -31.3519 0.573014 
1.61398 81.7097 1.26955 4.20513 6.99341 -39.8271 2.60958 12.1279 -2.79755 -54.5606 9.75529 14.6475 -21.5739 -5.41546 -46.3168 8.28631 18.8858 -5.33191 -14.7072 -1.33094 38.0624 61.1085 4.51962 5.69554 -6.49988 1.80327 58.7802 12.695 7.86732 18.1918 -24.3593 -23.5265 -16.0498 -6.1109 52.5451 2.82226 35.2434 -58.8727 12.0378 45.0272 -39.647 59.4217 0.946281 50.452 -21.084 -1.40281 -32.9294 3.22382 
2.62368 82.1316 3.15844 3.33656 8.11057 -38.2638 3.32131 11.541 -2.03324 -53.3312 6.75728 17.6261 -16.8564 -1.20672 -44.9795 3.9483 21.1747 -7.1147 -14.0697 -1.1237 34.9318 59.8839 4.56298 5.56674 -6.84232 3.29016 59.8747 13.2074 6.85767 19.4541 -24.2476 -21.5229 -15.8697 -4.87693 49.9214 1.63258 34.3905 -55.2469 9.31009 44.0727 -42.2661 55.5897 0.421137 52.2238 -19.1587 0.342157 -34.8936 5.77655 
3.54087 82.9439 6.59404 2.00791 8.20421 -35.4293 4.27659 10.5843 -0.853386 -49.6226 1.83371 18.2816 -10.5096 3.13792 -40.4764 -3.16872 22.4225 -11.2355 -12.0451 0.228187 30.4927 59.9289 -0.23153 3.17319 -5.83463 5.28489 60.2986 14.3639 8.80144 20.7636 -28.4458 -22.5377 -15.5233 -3.73992 57.0895 3.95907 33.3129 -38.3046 4.41141 40.0338 -44.0134 49.0947 -0.233149 54.3374 -17.2828 2.26661 -37.9084 8.21994 
4.38215 84.0753 11.0929 0.100082 5.18128 -30.364 5.12898 9.96373 -0.00700677 -39.2123 0.765376 20.1467 -8.24478 5.77105 -41.0396 -4.64771 15.3092 -11.5512 -9.01469 4.16406 24.2345 61.2155 -7.2039 1.39455 -4.5801 7.82177 58.2675 15.1976 12.0083 19.5338 -30.0551 -21.382 -15.6899 -5.81053 67.3665 8.8809 26.8457 -29.8393 2.93944 30.6574 -42.5436 38.742 -1.11529 55.7617 -15.7578 4.54486 -41.4502 9.70168 
4.96622 85.4799 15.3283 -1.66987 0.189907 -24.2214 5.6766 9.87991 -0.0403493 -27.9253 4.83504 15.8059 -7.06932 8.58698 -39.9813 -1.30274 4.66784 -11.6931 -6.05702 8.88571 17.3053 61.1545 -13.7379 -1.24175 -3.80272 10.9108 52.393 14.3809 14.3517 21.0586 -30.8672 -17.6085 -15.5384 -13.1155 75.7583 17.9606 17.9683 -24.3892 2.31463 20.3411 -37.262 28.0083 -2.02682 55.0231 -14.6951 6.17055 -43.9575 10.2549 
5.41699 87.0615 18.4873 -2.82897 -3.86678 -18.7974 6.00431 10.0369 -0.994343 -18.9722 10.2734 4.76353 -5.41161 10.7143 -38.8149 -0.461998 3.04197 -12.1305 -4.36886 11.5735 12.3994 60.6613 -17.9517 -1.41144 -3.58179 14.9307 43.455 11.7762 14.3771 24.1715 -30.8013 -16.833 -15.9268 -41.689 83.5068 46.7863 8.28841 -19.6747 2.50855 13.2074 -31.2744 19.7119 -2.66584 52.3001 -13.8309 6.79149 -44.8005 10.7737 
5.54298 88.2182 20.8987 -3.7253 -7.23451 -13.9582 6.53767 10.2729 -2.40804 -11.4777 14.6815 -9.14887 -1.55714 11.3043 -42.987 -6.19218 5.29217 -10.7478 -2.58053 12.5872 10.1216 60.4303 -22.1409 -2.91225 -3.89458 18.1304 39.6802 10.2699 13.9821 23.1854 -30.6143 -19.2215 -16.9813 -138.703 82.4811 142.538 0.0765025 -15.6255 3.81652 8.9925 -25.896 13.4252 -3.11383 50.0001 -13.2369 6.84794 -45.2984 11.0945 
5.68737 89.1912 23.164 -5.44731 -10.9433 -9.75755 7.50431 10.9864 -3.68013 -8.53916 14.6789 -23.3503 1.4771 11.9617 -44.4948 -6.64338 4.4067 -11.4424 -0.940391 14.9635 7.58022 58.1494 -23.5207 -7.13751 3.16383 13.3434 38.2489 8.53756 19.9989 17.9523 -34.9847 -30.5758 -24.7448 -170.409 66.3277 172.393 -9.64831 -15.0208 3.12627 7.33388 -19.9038 8.3422 -3.39594 48.2436 -12.9066 6.76633 -46.0775 11.0463 
5.71202 90.4101 25.5803 -6.57277 -13.2229 -8.23852 8.03378 11.8238 -4.23855 -11.0593 11.6488 -33.1545 4.83638 12.8401 -47.4012 -3.73571 -0.994101 -10.096 -0.729567 16.8807 6.31215 56.7914 -21.9235 -8.67064 10.5287 5.85068 34.6412 5.08724 26.643 15.4486 -42.0621 -47.0928 -37.9099 -173.086 55.1007 174.61 -11.7604 -16.0128 2.40369 6.26279 -14.3035 4.2926 -3.25208 45.2025 -12.1464 6.87191 -46.6429 12.3425 
5.78302 91.6073 27.6254 -6.72684 -15.5506 -7.67141 7.73173 12.7744 -4.40723 -15.9787 8.79682 -37.6975 7.92798 14.355 -53.7873 4.60728 -10.0665 -6.86971 -1.38436 20.2157 6.54891 55.9097 -19.8543 -10.4485 10.5479 1.53825 28.3037 1.79775 26.6754 19.0999 -54.6363 -63.9593 -57.6346 -171.725 56.5505 172.83 -10.9349 -18.8778 2.30875 4.61057 -8.17773 1.0373 -2.87164 40.9055 -11.4383 7.2841 -46.3989 14.085 
5.65799 92.49 29.8755 -6.54783 -19.6519 -6.4302 6.99987 13.946 -4.72858 -20.7935 9.79764 -34.8906 12.6261 15.3598 -67.5006 16.335 -18.4082 -0.341474 -1.33277 25.6585 5.89082 54.6908 -19.8647 -17.8535 2.27246 1.50623 23.8525 3.81042 21.5546 24.7854 -74.456 -76.3211 -82.5023 -163.247 74.3477 164.426 -9.7363 -25.4727 3.0171 3.11008 -0.0432023 -1.90702 -2.53506 36.5565 -11.2198 7.86292 -46.2402 15.5202 
